<svg width="32" height="32" viewBox="0 0 32 32" fill="none" xmlns="http://www.w3.org/2000/svg">
<path fill-rule="evenodd" clip-rule="evenodd" d="M30.5334 6.37697C30.5334 5.39265 30.1255 4.44802 29.4014 3.7517C28.6761 3.05666 27.6921 2.66498 26.6668 2.66498C21.5575 2.66498 10.4428 2.66498 5.33346 2.66498C4.30812 2.66498 3.32413 3.05666 2.5988 3.7517C1.8748 4.44802 1.4668 5.39265 1.4668 6.37697C1.4668 11.2819 1.4668 21.952 1.4668 26.857C1.4668 27.8413 1.8748 28.7859 2.5988 29.4822C3.32413 30.1773 4.30812 30.569 5.33346 30.569C10.4428 30.569 21.5575 30.569 26.6668 30.569C27.6921 30.569 28.6761 30.1773 29.4014 29.4822C30.1255 28.7859 30.5334 27.8413 30.5334 26.857V6.37697ZM28.1335 6.37697V26.857C28.1335 27.2307 27.9788 27.5891 27.7041 27.8528C27.4295 28.1165 27.0561 28.265 26.6668 28.265C21.5575 28.265 10.4428 28.265 5.33346 28.265C4.94412 28.265 4.57079 28.1165 4.29612 27.8528C4.02146 27.5891 3.86678 27.2307 3.86678 26.857C3.86678 21.952 3.86678 11.2819 3.86678 6.37697C3.86678 6.00321 4.02146 5.64479 4.29612 5.38111C4.57079 5.11743 4.94412 4.96896 5.33346 4.96896C10.4428 4.96896 21.5575 4.96896 26.6668 4.96896C27.0561 4.96896 27.4295 5.11743 27.7041 5.38111C27.9788 5.64479 28.1335 6.00321 28.1335 6.37697Z" fill="white"/>
<path fill-rule="evenodd" clip-rule="evenodd" d="M12.5332 19.817V9.57696C12.5332 8.9408 11.9998 8.42496 11.3332 8.42496C10.6665 8.42496 10.1331 8.9408 10.1331 9.57696V19.817C10.1331 20.4531 10.6665 20.969 11.3332 20.969C11.9998 20.969 12.5332 20.4531 12.5332 19.817Z" fill="white"/>
<path fill-rule="evenodd" clip-rule="evenodd" d="M21.8672 19.817V9.57699C21.8672 8.94083 21.3338 8.42499 20.6672 8.42499C20.0005 8.42499 19.4671 8.94083 19.4671 9.57699V19.817C19.4671 20.4532 20.0005 20.969 20.6672 20.969C21.3338 20.969 21.8672 20.4532 21.8672 19.817Z" fill="white"/>
<path fill-rule="evenodd" clip-rule="evenodd" d="M11.3331 11.2064L9.51979 12.951C9.03979 13.4016 8.27975 13.4016 7.81309 12.951C7.34642 12.5018 7.34642 11.7722 7.81309 11.3229L10.4798 8.76288C10.9464 8.31232 11.7065 8.31232 12.1865 8.76288L14.8531 11.3229C15.3198 11.7722 15.3198 12.5018 14.8531 12.951C14.3731 13.4016 13.6131 13.4016 13.1464 12.951L11.3331 11.2064Z" fill="white"/>
<path fill-rule="evenodd" clip-rule="evenodd" d="M20.6671 11.2064L18.8538 12.951C18.3738 13.4016 17.6137 13.4016 17.1471 12.951C16.6804 12.5017 16.6804 11.7721 17.1471 11.3228L19.8137 8.76285C20.2804 8.31229 21.0404 8.31229 21.5204 8.76285L24.1871 11.3228C24.6538 11.7721 24.6538 12.5017 24.1871 12.951C23.7071 13.4016 22.9471 13.4016 22.4804 12.951L20.6671 11.2064Z" fill="white"/>
<path fill-rule="evenodd" clip-rule="evenodd" d="M8.66679 24.809H23.3335C23.9961 24.809 24.5334 24.2931 24.5334 23.657C24.5334 23.0208 23.9961 22.505 23.3335 22.505H8.66679C8.00412 22.505 7.4668 23.0208 7.4668 23.657C7.4668 24.2931 8.00412 24.809 8.66679 24.809Z" fill="white"/>
</svg>
