<svg width="34" height="34" viewBox="0 0 34 34" fill="none" xmlns="http://www.w3.org/2000/svg">
<g clip-path="url(#clip0_303_1562)">
<rect x="1.5" y="1.5" width="31" height="31" rx="9" stroke="#EF7214" stroke-width="2"/>
<path d="M23.9671 18.5479C23.7617 18.5479 23.5648 18.6294 23.4196 18.7746C23.2744 18.9198 23.1929 19.1167 23.1929 19.322V22.4187C23.1929 22.624 23.1113 22.821 22.9661 22.9661C22.821 23.1113 22.624 23.1929 22.4187 23.1929H11.5803C11.375 23.1929 11.1781 23.1113 11.0329 22.9661C10.8877 22.821 10.8062 22.624 10.8062 22.4187V19.322C10.8062 19.1167 10.7246 18.9198 10.5794 18.7746C10.4342 18.6294 10.2373 18.5479 10.032 18.5479C9.82666 18.5479 9.62975 18.6294 9.48456 18.7746C9.33938 18.9198 9.25781 19.1167 9.25781 19.322V22.4187C9.25781 23.0347 9.50251 23.6254 9.93806 24.061C10.3736 24.4965 10.9644 24.7412 11.5803 24.7412H22.4187C23.0347 24.7412 23.6254 24.4965 24.061 24.061C24.4965 23.6254 24.7412 23.0347 24.7412 22.4187V19.322C24.7412 19.1167 24.6597 18.9198 24.5145 18.7746C24.3693 18.6294 24.1724 18.5479 23.9671 18.5479ZM16.4499 19.8717C16.5235 19.9422 16.6103 19.9974 16.7053 20.0343C16.798 20.0752 16.8982 20.0964 16.9995 20.0964C17.1008 20.0964 17.201 20.0752 17.2937 20.0343C17.3887 19.9974 17.4756 19.9422 17.5492 19.8717L20.6459 16.775C20.7916 16.6292 20.8735 16.4315 20.8735 16.2253C20.8735 16.0192 20.7916 15.8215 20.6459 15.6757C20.5001 15.5299 20.3024 15.448 20.0962 15.448C19.89 15.448 19.6923 15.5299 19.5465 15.6757L17.7737 17.4563V10.032C17.7737 9.82666 17.6921 9.62975 17.5469 9.48456C17.4018 9.33938 17.2048 9.25781 16.9995 9.25781C16.7942 9.25781 16.5973 9.33938 16.4521 9.48456C16.3069 9.62975 16.2253 9.82666 16.2253 10.032V17.4563L14.4525 15.6757C14.3803 15.6035 14.2946 15.5462 14.2003 15.5072C14.106 15.4681 14.0049 15.448 13.9028 15.448C13.8008 15.448 13.6997 15.4681 13.6054 15.5072C13.5111 15.5462 13.4254 15.6035 13.3532 15.6757C13.281 15.7479 13.2237 15.8336 13.1847 15.9279C13.1456 16.0222 13.1255 16.1233 13.1255 16.2253C13.1255 16.3274 13.1456 16.4285 13.1847 16.5228C13.2237 16.6171 13.281 16.7028 13.3532 16.775L16.4499 19.8717Z" fill="#EF7214"/>
</g>
<defs>
<clipPath id="clip0_303_1562">
<rect width="33" height="33" fill="white" transform="translate(0.5 0.5)"/>
</clipPath>
</defs>
</svg>
