<svg width="28" height="31" viewBox="0 0 28 31" fill="none" xmlns="http://www.w3.org/2000/svg">
<g clip-path="url(#clip0_303_1310)">
<path d="M26.4444 9.32594L17.1111 1.18268C16.2556 0.421061 15.1479 0 14 0C12.8522 0 11.7445 0.421061 10.889 1.18268L1.55569 9.32594C1.0616 9.76572 0.667321 10.3052 0.399101 10.9085C0.130881 11.5118 -0.00512172 12.1651 0.000147456 12.8247V26.3556C0.000147456 27.5873 0.491809 28.7687 1.36697 29.6397C2.24214 30.5107 3.42911 31 4.66678 31H23.3333C24.571 31 25.758 30.5107 26.6331 29.6397C27.5083 28.7687 27.9999 27.5873 27.9999 26.3556V12.8093C28.003 12.1522 27.8659 11.5019 27.5978 10.9015C27.3296 10.301 26.9365 9.76399 26.4444 9.32594ZM17.1111 27.9037H10.889V20.163C10.889 19.7524 11.0528 19.3586 11.3446 19.0683C11.6363 18.7779 12.0319 18.6148 12.4445 18.6148H15.5556C15.9681 18.6148 16.3638 18.7779 16.6555 19.0683C16.9472 19.3586 17.1111 19.7524 17.1111 20.163V27.9037ZM24.8889 26.3556C24.8889 26.7662 24.725 27.1599 24.4333 27.4503C24.1415 27.7406 23.7459 27.9037 23.3333 27.9037H20.2222V20.163C20.2222 18.9312 19.7306 17.7499 18.8554 16.8789C17.9802 16.0078 16.7933 15.5185 15.5556 15.5185H12.4445C11.2068 15.5185 10.0199 16.0078 9.14469 16.8789C8.26953 17.7499 7.77787 18.9312 7.77787 20.163V27.9037H4.66678C4.25423 27.9037 3.85857 27.7406 3.56685 27.4503C3.27512 27.1599 3.11124 26.7662 3.11124 26.3556V12.8093C3.11152 12.5895 3.15883 12.3722 3.25002 12.172C3.34121 11.9718 3.47419 11.7932 3.64012 11.6482L12.9734 3.52038C13.2573 3.27218 13.6222 3.1353 14 3.1353C14.3779 3.1353 14.7428 3.27218 15.0267 3.52038L24.36 11.6482C24.5259 11.7932 24.6589 11.9718 24.7501 12.172C24.8413 12.3722 24.8886 12.5895 24.8889 12.8093V26.3556Z" fill="white"/>
</g>
<defs>
<clipPath id="clip0_303_1310">
<rect width="28" height="31" fill="white"/>
</clipPath>
</defs>
</svg>
