<svg width="32" height="32" viewBox="0 0 32 32" fill="none" xmlns="http://www.w3.org/2000/svg">
<path d="M28.2797 32H3.7207C3.4442 32 3.2207 31.776 3.2207 31.5V0.5C3.2207 0.2235 3.4442 0 3.7207 0H28.2792C28.5552 0 28.7792 0.2235 28.7792 0.5V31.5C28.7797 31.776 28.5552 32 28.2797 32ZM4.2207 31H27.7792V1H4.2207V31Z" fill="white"/>
<path d="M12.2763 9.23582H6.48828C6.21228 9.23582 5.98828 9.01232 5.98828 8.73582V3.15332C5.98828 2.87682 6.21228 2.65332 6.48828 2.65332H12.2763C12.5528 2.65332 12.7763 2.87682 12.7763 3.15332V8.73582C12.7763 9.01182 12.5523 9.23582 12.2763 9.23582ZM6.98828 8.23582H11.7763V3.65332H6.98828V8.23582Z" fill="white"/>
<path d="M9.38278 7.74707C9.29128 7.74707 9.20028 7.72207 9.12028 7.67257C8.16228 7.08107 7.53878 6.29207 7.45128 5.56207C7.40328 5.16307 7.52328 4.79657 7.78728 4.52907C8.20028 4.11157 8.86778 4.02907 9.38278 4.31907C9.89778 4.02907 10.5653 4.11157 10.9778 4.52907C11.2418 4.79607 11.3613 5.16357 11.3138 5.56207C11.2263 6.29207 10.6028 7.08107 9.64528 7.67257C9.56478 7.72207 9.47328 7.74707 9.38278 7.74707ZM8.71378 5.14007C8.65728 5.14007 8.57328 5.15607 8.49778 5.23207C8.47728 5.25357 8.42728 5.30407 8.44428 5.44357C8.48028 5.74457 8.78428 6.21307 9.38278 6.64607C9.98128 6.21257 10.2853 5.74407 10.3213 5.44357C10.3378 5.30407 10.2883 5.25357 10.2668 5.23207C10.1923 5.15657 10.1088 5.14007 10.0513 5.14007C9.94478 5.14007 9.83878 5.19207 9.75328 5.28707C9.65878 5.39207 9.52378 5.45157 9.38278 5.45157C9.24128 5.45157 9.10628 5.39207 9.01178 5.28707C8.92578 5.19257 8.82028 5.14007 8.71378 5.14007ZM12.2763 29.3466H6.48828C6.21228 29.3466 5.98828 29.1226 5.98828 28.8466V23.2636C5.98828 22.9876 6.21228 22.7636 6.48828 22.7636H12.2763C12.5528 22.7636 12.7763 22.9876 12.7763 23.2636V28.8466C12.7763 29.1226 12.5523 29.3466 12.2763 29.3466ZM6.98828 28.3466H11.7763V23.7636H6.98828V28.3466Z" fill="white"/>
<path d="M8.33947 27.4738C8.20747 27.4738 8.08047 27.4218 7.98697 27.3288L6.13597 25.4913C5.93997 25.2968 5.93897 24.9803 6.13347 24.7843C6.32797 24.5878 6.64397 24.5868 6.84047 24.7813L8.29647 26.2268L9.20347 25.0913C9.29997 24.9698 9.44297 24.9008 9.60397 24.9033C9.75947 24.9068 9.90447 24.9818 9.99647 25.1068L10.6175 25.9503L11.969 24.8988C12.186 24.7298 12.5005 24.7683 12.6705 24.9868C12.84 25.2048 12.801 25.5183 12.5825 25.6883L10.8255 27.0543C10.719 27.1363 10.585 27.1723 10.45 27.1548C10.316 27.1363 10.196 27.0643 10.116 26.9558L9.57697 26.2243L8.72947 27.2858C8.64047 27.3968 8.50897 27.4643 8.36697 27.4728C8.35797 27.4738 8.34847 27.4738 8.33947 27.4738ZM22.6725 5.38477H15.7175C15.4415 5.38477 15.2175 5.16077 15.2175 4.88477C15.2175 4.60827 15.4415 4.38477 15.7175 4.38477H22.6725C22.949 4.38477 23.1725 4.60827 23.1725 4.88477C23.1725 5.16027 22.9485 5.38477 22.6725 5.38477ZM25.51 7.50377H15.7175C15.4415 7.50377 15.2175 7.27977 15.2175 7.00377C15.2175 6.72727 15.4415 6.50377 15.7175 6.50377H25.5105C25.787 6.50377 26.0105 6.72727 26.0105 7.00377C26.01 7.27977 25.7865 7.50377 25.51 7.50377Z" fill="white"/>
<path d="M22.6737 15.826H15.7188C15.4428 15.826 15.2188 15.6025 15.2188 15.326C15.2188 15.05 15.4428 14.826 15.7188 14.826H22.6737C22.9502 14.826 23.1737 15.05 23.1737 15.326C23.1737 15.6025 22.9497 15.826 22.6737 15.826ZM25.5112 17.9455H15.7188C15.4428 17.9455 15.2188 17.722 15.2188 17.4455C15.2188 17.1695 15.4428 16.9455 15.7188 16.9455H25.5117C25.7882 16.9455 26.0117 17.1695 26.0117 17.4455C26.0112 17.7215 25.7877 17.9455 25.5112 17.9455Z" fill="white"/>
<path d="M22.6737 25.496H15.7188C15.4428 25.496 15.2188 25.272 15.2188 24.996C15.2188 24.7195 15.4428 24.496 15.7188 24.496H22.6737C22.9502 24.496 23.1737 24.7195 23.1737 24.996C23.1737 25.272 22.9497 25.496 22.6737 25.496ZM25.5112 27.615H15.7188C15.4428 27.615 15.2188 27.391 15.2188 27.115C15.2188 26.8385 15.4428 26.615 15.7188 26.615H25.5117C25.7882 26.615 26.0117 26.8385 26.0117 27.115C26.0112 27.391 25.7877 27.615 25.5112 27.615Z" fill="white"/>
<path d="M12.2763 19.6768H6.48828C6.21228 19.6768 5.98828 19.4528 5.98828 19.1768V13.5938C5.98828 13.3178 6.21228 13.0938 6.48828 13.0938H12.2763C12.5528 13.0938 12.7763 13.3178 12.7763 13.5938V19.1768C12.7763 19.4528 12.5523 19.6768 12.2763 19.6768ZM6.98828 18.6768H11.7763V14.0938H6.98828V18.6768Z" fill="white"/>
<path d="M8.84873 17.7953C8.72073 17.7953 8.59273 17.7463 8.49523 17.6488L7.74623 16.8998C7.55073 16.7043 7.55073 16.3883 7.74623 16.1928C7.94173 15.9973 8.25773 15.9973 8.45323 16.1928L8.84873 16.5883L9.97874 15.4583C10.1742 15.2628 10.4902 15.2628 10.6857 15.4583C10.8812 15.6538 10.8812 15.9698 10.6857 16.1653L9.20223 17.6488C9.10473 17.7463 8.97673 17.7953 8.84873 17.7953Z" fill="white"/>
</svg>
