<svg width="37" height="32" viewBox="0 0 37 32" fill="none" xmlns="http://www.w3.org/2000/svg">
<g clip-path="url(#clip0_303_1315)">
<path fill-rule="evenodd" clip-rule="evenodd" d="M0.427754 2.23717C0.25785 2.24572 0.0982791 2.32184 -0.0158544 2.4488C-0.129988 2.57576 -0.189335 2.74315 -0.18084 2.91414C-0.172344 3.08514 -0.0967029 3.24573 0.0294447 3.3606C0.155592 3.47546 0.321912 3.53519 0.491817 3.52664H3.80385L7.55022 23.6347C7.57827 23.7822 7.6566 23.9152 7.77168 24.0108C7.88677 24.1063 8.03139 24.1585 8.1806 24.1582H27.4993C27.5053 24.1592 27.5112 24.16 27.5172 24.1608C27.5386 24.161 27.56 24.1602 27.5813 24.1582H27.7901C28.6819 24.1582 29.311 24.7643 29.311 25.4477C29.311 26.1311 28.6819 26.7372 27.7889 26.7372H8.04991C7.88001 26.7372 7.71706 26.8051 7.59692 26.926C7.47678 27.0469 7.40929 27.2109 7.40929 27.3819C7.40929 27.5529 7.47678 27.7169 7.59692 27.8378C7.71706 27.9587 7.88001 28.0266 8.04991 28.0266H27.7901C29.293 28.0266 30.5922 26.9087 30.5922 25.4477C30.5922 24.1427 29.5544 23.1163 28.2604 22.9113L30.5845 8.14296C30.599 8.05091 30.5934 7.95681 30.5683 7.86713C30.5431 7.77745 30.4989 7.69433 30.4387 7.62349C30.3786 7.55265 30.3039 7.49577 30.2198 7.45679C30.1357 7.4178 30.0442 7.39762 29.9516 7.39764H5.82822L4.96466 2.76327C4.93722 2.61574 4.8595 2.48247 4.74489 2.38644C4.63029 2.2904 4.48598 2.23761 4.33685 2.23717H0.493098C0.471331 2.23605 0.449521 2.23605 0.427754 2.23717ZM24.8266 28.0266C23.7721 28.0266 22.9047 28.8996 22.9047 29.9608C22.9047 31.0221 23.7721 31.8951 24.8266 31.8951C25.8811 31.8951 26.7485 31.0221 26.7485 29.9608C26.7485 28.8996 25.8811 28.0266 24.8266 28.0266ZM12.0141 28.0266C10.9596 28.0266 10.0922 28.8996 10.0922 29.9608C10.0922 31.0221 10.9596 31.8951 12.0141 31.8951C13.0686 31.8951 13.936 31.0221 13.936 29.9608C13.936 28.8996 13.0686 28.0266 12.0141 28.0266ZM6.0691 8.68711H10.1448L10.3574 11.2635H6.54829L6.0691 8.68711ZM11.4286 8.68711H15.2172V11.2635H11.6413L11.4286 8.68711ZM16.4985 8.68711H19.061V11.2635H16.4985V8.68711ZM20.3422 8.68711H24.1309L23.9182 11.2635H20.3422V8.68711ZM25.4147 8.68711H29.2008L28.7959 11.2635H25.202L25.4147 8.68711ZM6.78916 12.553H10.4651L10.6778 15.1319H7.26963L6.78916 12.553ZM11.7489 12.553H15.2172V15.1319H11.9616L11.7489 12.553ZM16.4985 12.553H19.061V15.1319H16.4985V12.553ZM20.3422 12.553H23.8106L23.5979 15.1319H20.3422V12.553ZM25.0944 12.553H28.5922L28.1873 15.1319H24.8817L25.0944 12.553ZM7.50922 16.4214H10.7854L10.9981 19.0003H7.98969L7.50922 16.4214ZM12.0692 16.4214H15.2172V19.0003H12.2819L12.0692 16.4214ZM16.4985 16.4214H19.061V19.0003H16.4985V16.4214ZM20.3422 16.4214H23.4903L23.2776 19.0003H20.3422V16.4214ZM24.7741 16.4214H27.9849L27.5787 19.0003H24.5614L24.7741 16.4214ZM8.23057 20.2898H11.1031L11.3184 22.8687H8.71104L8.23057 20.2898ZM12.3895 20.2898H15.2172V22.8687H12.6022L12.3895 20.2898ZM16.4985 20.2898H19.061V22.8687H16.4985V20.2898ZM20.3422 20.2898H23.1699L22.9573 22.8687H20.3422V20.2898ZM24.455 20.2898H27.3763L26.9689 22.8687H24.2411L24.4563 20.2898H24.455ZM12.0141 29.3161C12.3754 29.3161 12.6547 29.5972 12.6547 29.9608C12.6547 30.3245 12.3754 30.6056 12.0141 30.6056C11.9296 30.6068 11.8458 30.591 11.7675 30.559C11.6893 30.527 11.6181 30.4796 11.5584 30.4195C11.4987 30.3593 11.4515 30.2878 11.4198 30.209C11.388 30.1302 11.3723 30.0459 11.3735 29.9608C11.3735 29.5972 11.6528 29.3161 12.0141 29.3161ZM24.8266 29.3161C25.1879 29.3161 25.4672 29.5972 25.4672 29.9608C25.4672 30.3245 25.1879 30.6056 24.8266 30.6056C24.7421 30.6068 24.6583 30.591 24.58 30.559C24.5018 30.527 24.4306 30.4796 24.3709 30.4195C24.3112 30.3593 24.264 30.2878 24.2323 30.209C24.2005 30.1302 24.1848 30.0459 24.186 29.9608C24.186 29.5972 24.4653 29.3161 24.8266 29.3161Z" fill="white"/>
</g>
<defs>
<clipPath id="clip0_303_1315">
<rect width="37" height="32" fill="white"/>
</clipPath>
</defs>
</svg>
