<svg width="32" height="32" viewBox="0 0 32 32" fill="none" xmlns="http://www.w3.org/2000/svg">
<path d="M28.2967 9.59416V26.516C28.2967 27.2942 28.2874 28.0754 28.2967 28.8535V28.8848L29.8592 27.3223H3.27174C2.91237 27.3223 2.55299 27.3192 2.19362 27.3223H2.14674L3.70924 28.8848V11.9629C3.70924 11.1848 3.71862 10.4035 3.70924 9.62541V9.59416L2.14674 11.1567H28.7342C29.0936 11.1567 29.453 11.1598 29.8124 11.1567H29.8592C30.2592 11.1567 30.6811 10.9817 30.9655 10.7004C31.2374 10.4285 31.4405 9.98479 31.4217 9.59416C31.403 9.19104 31.2717 8.77229 30.9655 8.48791C30.6592 8.20666 30.2842 8.03166 29.8592 8.03166H3.27174C2.91237 8.03166 2.55299 8.02854 2.19362 8.03166H2.14674C1.30299 8.03166 0.584245 8.74729 0.584245 9.59416V26.516C0.584245 27.2942 0.57487 28.0754 0.584245 28.8535V28.8848C0.584245 29.7285 1.29987 30.4473 2.14674 30.4473H28.7342C29.0936 30.4473 29.453 30.4504 29.8124 30.4473H29.8592C30.703 30.4473 31.4217 29.7317 31.4217 28.8848V11.9629C31.4217 11.1848 31.4311 10.4035 31.4217 9.62541V9.59416C31.4217 9.19416 31.2467 8.77229 30.9655 8.48791C30.6936 8.21604 30.2499 8.01291 29.8592 8.03166C29.4561 8.05041 29.0374 8.18166 28.753 8.48791C28.4749 8.79729 28.2967 9.17229 28.2967 9.59416Z" fill="white"/>
<path d="M29.8597 8.03394H3.27224C2.91287 8.03394 2.55349 8.03082 2.19412 8.03394H2.14724C2.51599 8.92457 2.88474 9.81207 3.25349 10.7027L5.31599 8.50894C6.41287 7.34332 7.50974 6.18082 8.60349 5.01519C8.85349 4.74957 9.10662 4.48082 9.35662 4.21519C8.98787 4.36832 8.61912 4.52144 8.25037 4.67144H21.8566C22.4816 4.67144 23.1066 4.68082 23.7316 4.67144H23.7597C23.391 4.51832 23.0222 4.36519 22.6535 4.21519L24.716 6.40894C25.8129 7.57457 26.9097 8.73707 28.0035 9.90269C28.2535 10.1683 28.5066 10.4371 28.7566 10.7027C29.0254 10.9902 29.4722 11.1589 29.8629 11.1589C30.2472 11.1589 30.7035 10.9902 30.9691 10.7027C31.241 10.4058 31.4441 10.0152 31.4254 9.59644C31.4066 9.17457 31.2597 8.80269 30.9691 8.49019C30.3472 7.83082 29.7285 7.17144 29.1066 6.51207C28.0472 5.38707 26.991 4.26207 25.9316 3.14019C25.616 2.80269 25.2972 2.46832 24.9816 2.13082C24.6597 1.78707 24.2597 1.55582 23.7566 1.54644H8.72537C8.44412 1.54644 8.10349 1.51519 7.83474 1.60269C7.29724 1.77769 7.00037 2.15894 6.63474 2.54644C5.65037 3.59019 4.66912 4.63394 3.68474 5.68082C2.84724 6.57144 2.00974 7.45894 1.17224 8.34957C1.12849 8.39644 1.08162 8.44644 1.03787 8.49332C0.603493 8.95582 0.465993 9.61207 0.715993 10.1996C0.956618 10.7652 1.51599 11.1589 2.14412 11.1589H28.7316C29.091 11.1589 29.4504 11.1621 29.8097 11.1589H29.8566C30.2566 11.1589 30.6785 10.9839 30.9629 10.7027C31.2347 10.4308 31.4379 9.98707 31.4191 9.59644C31.4004 9.19332 31.2691 8.77457 30.9629 8.49019C30.6597 8.21207 30.2847 8.03394 29.8597 8.03394Z" fill="white"/>
<path d="M17.8883 9.59417V18.1629C18.6727 17.7129 19.457 17.2629 20.2383 16.8129C19.207 16.2723 18.1758 15.7317 17.1414 15.191C17.0102 15.1223 16.8789 15.0504 16.7445 14.9817C16.5008 14.8598 16.2352 14.7535 15.9539 14.766C15.6664 14.7785 15.4227 14.8473 15.1633 14.9785C15.1508 14.9848 15.1383 14.991 15.1258 15.0004C15.057 15.0379 14.9852 15.0723 14.9164 15.1098C14.3164 15.4254 13.7164 15.7379 13.1164 16.0535C12.6352 16.3067 12.1539 16.5598 11.6695 16.8098C12.4539 17.2598 13.2383 17.7098 14.0195 18.1598V9.59104L12.457 11.1535H19.4477C19.8477 11.1535 20.2695 10.9785 20.5539 10.6973C20.8258 10.4254 21.0289 9.98167 21.0102 9.59104C20.9914 9.18792 20.8602 8.76917 20.5539 8.48479C20.2477 8.20354 19.8727 8.02854 19.4477 8.02854H12.457C11.6133 8.02854 10.8945 8.74417 10.8945 9.59104V18.1598C10.8945 18.7098 11.1945 19.2317 11.6695 19.5098C12.1695 19.8035 12.7445 19.7723 13.2477 19.5098C14.2664 18.9754 15.2883 18.441 16.307 17.9067C16.4539 17.8317 16.5977 17.7535 16.7445 17.6785H15.1664C16.1852 18.2129 17.207 18.7473 18.2258 19.2817C18.3727 19.3567 18.5164 19.4348 18.6633 19.5098C19.1633 19.7723 19.7414 19.8035 20.2414 19.5098C20.7164 19.2317 21.0164 18.7129 21.0164 18.1598V9.59104C21.0164 9.19104 20.8414 8.76917 20.5602 8.48479C20.2883 8.21292 19.8445 8.00979 19.4539 8.02854C19.0508 8.04729 18.632 8.17854 18.3477 8.48479C18.0664 8.79729 17.8883 9.17229 17.8883 9.59417Z" fill="white"/>
</svg>
