<svg width="32" height="32" viewBox="0 0 32 32" fill="none" xmlns="http://www.w3.org/2000/svg">
<path d="M30.7689 28.7935C30.7689 29.132 30.492 29.4089 30.1535 29.4089H1.84585C1.50124 29.4089 1.23047 29.132 1.23047 28.7935V15.255C1.23047 15.1381 1.26124 15.0212 1.32278 14.9289C1.43355 14.7566 1.62431 14.6396 1.84585 14.6396C2.18431 14.6396 2.46124 14.9166 2.46124 15.255V28.1781H30.1535C30.492 28.1781 30.7689 28.455 30.7689 28.7935Z" fill="white"/>
<path d="M30.7689 16.4861V28.7938C30.7689 29.1323 30.492 29.4092 30.1535 29.4092C29.8089 29.4092 29.5382 29.1323 29.5382 28.7938V16.4861C29.5382 9.50153 23.4643 3.82153 15.9997 3.82153C8.52893 3.82153 2.46124 9.50153 2.46124 16.4861C2.46124 16.8246 2.18431 17.1015 1.84585 17.1015C1.50124 17.1015 1.23047 16.8246 1.23047 16.4861C1.23047 15.9569 1.26124 15.44 1.32278 14.9292C2.14739 7.99384 8.41201 2.59076 15.9997 2.59076C24.1412 2.59076 30.7689 8.82461 30.7689 16.4861Z" fill="white"/>
<path d="M20.498 9.10156H12.1349C11.7965 9.10156 11.5195 9.37849 11.5195 9.71695V17.1016C11.5195 17.44 11.7965 17.7169 12.1349 17.7169H20.498C20.8426 17.7169 21.1134 17.44 21.1134 17.1016V9.71695C21.1134 9.37849 20.8426 9.10156 20.498 9.10156ZM12.7503 10.3323H19.8826V16.4862H12.7503V10.3323Z" fill="white"/>
<path d="M24.6835 16.7938H16.3205C15.982 16.7938 15.7051 17.0707 15.7051 17.4092V24.7938C15.7051 25.1323 15.982 25.4092 16.3205 25.4092H24.6835C25.022 25.4092 25.2989 25.1323 25.2989 24.7938V17.4092C25.2989 17.0707 25.022 16.7938 24.6835 16.7938ZM24.0682 24.1784H16.9358V18.0246H24.0682V24.1784Z" fill="white"/>
<path d="M16.3203 16.7938H7.95718C7.61257 16.7938 7.3418 17.0707 7.3418 17.4092V24.7938C7.3418 25.1323 7.61257 25.4092 7.95718 25.4092H16.3203C16.6587 25.4092 16.9356 25.1323 16.9356 24.7938V17.4092C16.9356 17.0707 16.6587 16.7938 16.3203 16.7938ZM8.57257 18.0246H15.7049V24.1784H8.57257V18.0246ZM21.1449 16.7938H19.2126C18.8741 16.7938 18.5972 17.0707 18.5972 17.4092V19.5631C18.5972 19.9015 18.8741 20.1784 19.2126 20.1784H21.1449C21.4833 20.1784 21.7603 19.9015 21.7603 19.5631V17.4092C21.7603 17.0707 21.4833 16.7938 21.1449 16.7938ZM20.5295 18.9477H19.828V18.0246H20.5295V18.9477Z" fill="white"/>
<path d="M13.1024 16.7938H11.1701C10.8316 16.7938 10.5547 17.0707 10.5547 17.4092V19.5631C10.5547 19.9015 10.8316 20.1784 11.1701 20.1784H13.1024C13.4408 20.1784 13.7178 19.9015 13.7178 19.5631V17.4092C13.7178 17.0707 13.4408 16.7938 13.1024 16.7938ZM12.487 18.9477H11.7855V18.0246H12.487V18.9477Z" fill="white"/>
<path d="M17.6434 9.25586H15.7111C15.3726 9.25586 15.0957 9.53278 15.0957 9.87124V12.0251C15.0957 12.3636 15.3726 12.6405 15.7111 12.6405H17.6434C17.9819 12.6405 18.2588 12.3636 18.2588 12.0251V9.87124C18.2588 9.53278 17.9819 9.25586 17.6434 9.25586ZM17.028 11.4097H16.3265V10.4866H17.028V11.4097Z" fill="white"/>
</svg>
